<svg width="364" height="441" viewBox="0 0 364 441" fill="none" xmlns="http://www.w3.org/2000/svg">
<path d="M181.227 2.07568C181.403 2.16583 181.623 2.19827 181.754 2.34612C182.272 2.93322 183.148 5.89363 183.51 6.81038C184.927 10.3924 186.374 13.8417 188.353 17.1608C193.024 24.9941 200.445 30.2137 209.214 32.4053C208.854 32.531 208.497 32.6654 208.144 32.8085C191.557 39.5406 188.349 46.4669 181.752 62.2231C181.533 62.2315 181.367 62.1411 181.165 62.0653C179.175 53.6221 174.425 44.7527 167.466 39.4049C165.03 37.5326 161.849 35.9673 159.046 34.6924C157.768 34.111 155.432 33.8215 154.674 32.559C155.336 31.2857 159.276 30.5893 160.661 29.9027C162.565 28.9585 164.502 27.6291 166.264 26.4373C173.022 21.8682 176.593 15.3482 179.323 7.88726C179.985 6.07561 180.838 4.18668 181.191 2.28833C181.205 2.21766 181.215 2.14656 181.227 2.07568Z" fill="#F3CC2C"/>
<path d="M88.9282 201.953L188.162 201.919C187.987 205.275 188.036 208.757 188.24 212.111C188.061 212.102 187.882 212.092 187.703 212.089C180.285 211.983 169.642 213.978 164.244 219.321C162.08 221.464 160.73 223.996 160.27 227.008C158.689 237.363 159.056 247.783 159.056 258.218V296.2L159.08 427.697C161.423 428.474 170.452 427.991 173.377 427.988C194.202 427.965 216.423 428.811 235.712 419.547C251.972 411.738 259.853 391.779 263.332 375.146C264.364 370.215 264.343 364.747 265.999 360.01C269.054 359.926 272.11 359.895 275.167 359.916C274.929 365.154 275.063 370.443 275.06 375.688C275.057 396.999 274.73 418.366 275.139 439.671C274.919 439.789 274.703 439.874 274.463 439.947C273.043 440.373 253.429 440.018 250.47 440.018L169.331 440.014H113.208L97.286 440.033C94.8705 440.052 92.1042 440.37 89.728 440.076C89.4298 440.039 89.2278 439.92 88.9677 439.782C88.892 435.678 88.8745 431.574 88.9151 427.47C89.7959 428.022 90.7667 427.988 91.7691 427.991C99.5081 428.017 110.755 427.443 116.535 421.583C119.371 418.708 121.151 413.577 121.655 409.624C122.425 403.574 121.951 397.033 121.944 390.92L121.925 357.325L121.943 243.873C121.938 237.059 122.079 223.618 117.006 218.657C112.67 214.418 104.016 212.56 98.1093 212.131C95.091 211.912 91.9848 212.104 88.9591 212.171C88.8083 208.766 88.8826 205.359 88.9282 201.953Z" fill="#F3CC2C"/>
<path d="M362.202 36.5305C362.398 36.684 362.573 36.7191 362.577 36.9954C362.594 38.0235 349.691 64.1716 348.071 67.5031C345.649 72.4842 343.698 77.678 341.325 82.6775C338.073 89.5272 334.543 96.263 331.275 103.111C328.555 108.808 326.304 114.728 323.6 120.436C321.621 124.612 319.239 128.593 317.192 132.732C315.899 135.345 314.805 138.059 313.536 140.686C310.903 146.022 308.23 151.338 305.517 156.634C303.819 159.997 298.757 171.496 296.854 173.686C296.083 174.096 295.07 174.104 294.212 174.131C285.045 174.415 275.851 174.124 266.683 174.073L229.541 174.108L68.2247 174.16C65.761 170.335 64.2745 166.188 62.3294 162.109C59.2459 155.644 56.0359 149.214 52.8635 142.791C50.631 138.271 48.2099 133.849 46.0202 129.306C43.3352 123.735 41.036 117.964 38.4041 112.364C34.9748 105.066 31.1909 97.9308 27.7089 90.6574C26.5738 88.2865 25.6141 85.8374 24.4863 83.4647C21.8055 77.8248 18.9216 72.2784 16.2103 66.6522C13.131 60.262 10.2088 53.8338 7.01966 47.4903C5.21724 44.0389 3.56648 40.5163 2.06738 36.9226C7.76891 40.6944 13.9823 43.6093 19.9761 46.8611C27.055 50.7016 34.0485 54.8168 40.9632 58.9438C47.7104 62.9888 54.3857 67.1492 60.989 71.425C65.5759 74.4044 70.3329 78.3226 75.4109 80.3239C75.6489 77.4413 76.5837 74.2727 77.4707 71.517C80.855 61.0024 89.4019 50.1551 99.3149 45.0756C109.696 39.7562 121.055 40.3531 131.907 43.8556C148.814 49.313 163.911 62.6729 175.228 75.9735C177.343 78.4589 180.021 81.0884 181.513 83.9978L181.588 83.8602C183.383 80.5965 186.187 78.1826 188.593 75.3913C192.72 70.604 196.938 65.7841 201.622 61.528C209.854 54.0481 221.753 46.5979 232.478 43.5222C243.289 40.4217 256.358 41.1202 266.284 46.68C280.251 54.5024 284.374 66.9386 288.528 81.3923C291.078 79.1528 294.074 77.2471 296.846 75.29C306.651 68.3692 316.921 62.3315 327.2 56.162C330.644 54.0952 333.83 51.5013 337.359 49.6052C341.564 47.3452 345.802 44.9123 350.055 42.7687C354.065 40.7475 358.422 38.9464 362.202 36.5305ZM321.628 78.9566C311.44 88.6723 300.116 97.1746 289.902 106.874C286.365 110.234 283.312 114.143 280.107 117.816C271.212 128.011 260.515 139.394 246.576 141.903C242.79 142.585 238.616 142.475 234.768 142.376C219.791 141.988 203.166 132.98 191.982 123.485C188.231 120.301 184.834 116.583 181.431 113.03C179.569 116.476 176.644 118.551 173.768 121.095C163.704 130 156.259 135.712 143.155 139.603C129.719 143.592 116.507 143.336 103.996 136.544C96.1345 132.277 90.3485 124.831 84.4581 118.311C81.1351 114.633 77.6456 111.02 74.2258 107.427C70.3028 103.304 65.8393 99.6608 61.5125 95.9732C58.0803 93.0482 54.6463 89.9217 50.893 87.4122C47.5516 85.2556 44.9392 82.5505 41.8929 80.053C43.8453 85.0922 47.2964 89.1637 49.7121 93.9696C51.5732 97.6722 53.3522 101.44 55.3144 105.089C56.8236 107.895 58.4987 110.604 59.9648 113.436C64.7784 122.733 69.218 132.127 73.5766 141.634C74.7868 144.274 76.244 146.805 77.4521 149.44C78.06 150.766 78.4348 152.197 78.9954 153.543C79.132 153.871 79.4481 154.706 79.7767 154.824C80.2394 154.988 89.0075 153.867 90.7929 153.908C94.9129 154.002 99.0025 154.61 103.134 154.685C117.163 154.94 131.234 154.749 145.267 154.758L233.254 154.707L274.119 154.731C277.49 154.719 280.867 153.84 284.208 154.001C288.181 147.866 290.729 141.309 293.92 134.792C296.15 130.237 298.487 125.722 300.639 121.131C302.107 117.998 303.319 114.776 304.898 111.69C308.14 105.352 311.883 99.259 315.141 92.9305C317.46 88.4251 318.909 84.2515 321.648 79.7469C321.783 79.5248 321.805 79.3857 321.79 79.1294L321.628 78.9566ZM241.419 61.3465C230.968 62.5029 220.175 69.2487 212.615 76.268C209.425 79.2306 206.645 82.5155 203.754 85.7616C201.958 87.7782 200.022 89.7206 198.337 91.8283C196.137 94.5808 194.151 97.4695 191.827 100.127C195.108 103.602 198.696 106.666 202.307 109.786C203.349 110.687 204.466 111.89 205.623 112.623C206.016 112.873 206.522 112.929 206.977 112.947C211.299 113.117 217.186 107.966 220.139 105.048C221.366 103.837 227.003 96.3731 227.576 96.3293C228.015 97.5716 228.251 98.9218 228.401 100.229C229.675 107.691 231.72 117.303 238.311 121.912C238.614 122.121 238.926 122.315 239.247 122.494C239.569 122.672 239.899 122.834 240.237 122.979C240.575 123.124 240.92 123.252 241.271 123.363C241.622 123.474 241.977 123.567 242.338 123.642C242.698 123.717 243.061 123.774 243.427 123.812C243.793 123.851 244.16 123.871 244.528 123.873C244.896 123.875 245.263 123.859 245.629 123.824C245.996 123.789 246.359 123.735 246.72 123.664C252.803 122.504 260.375 116.466 263.783 111.386C268.515 104.333 269.873 97.2783 269.888 88.9138C269.892 86.413 269.923 83.9427 269.421 81.4772C268.064 74.814 264.46 68.5004 258.683 64.7359C254.426 61.9621 246.634 60.2559 241.588 61.3012C241.531 61.313 241.476 61.3314 241.419 61.3465ZM121.556 60.6532C121.48 60.673 121.403 60.6942 121.326 60.7127C118.959 61.2811 116.456 61.0206 114.057 61.4603C107.263 62.7056 101.181 67.9563 97.6264 73.6723C93.2357 80.7331 92.1535 89.8669 94.1004 97.8723C96.2546 106.73 101.771 115.916 109.664 120.696C113.506 123.023 119.492 124.819 123.972 123.677C126.837 122.947 128.829 120.477 130.255 118.025C133.498 112.447 134.843 106.087 135.71 99.7621C135.886 98.0512 135.972 96.3927 135.982 94.6734C140.061 100.919 149.583 109.402 155.515 113.967C161.26 109.703 166.124 105.042 171.292 100.148C167.32 94.3229 162.469 89.2498 157.623 84.1606C148.726 74.8165 138.867 63.8058 125.589 61.2609C124.293 61.0125 122.777 61.0982 121.556 60.6532Z" fill="#F3CC2C"/>
</svg>
